# xmcd CD database file
#
# Track frame offsets:
#	150
#	24807
#	52478
#	70427
#	125212
#	162682
#
# Disc length: 3350 seconds
#
# Revision: 0
# Processed by: cddbd v1.5.2PL0 Copyright (c) Steve Scherf et al.
# Submitted via: CDex 1.70beta2
#
DISCID=5d0d1406
DTITLE=Jean-Louis Agobert - Génération
DYEAR=2006
DGENRE=Jazz
TTITLE0=Génération
TTITLE1=Génération II
TTITLE2=Génération III
TTITLE3=Phonal
TTITLE4=Feuermann
TTITLE5=Ritratto Concertante
EXTD=YEAR: 2006
EXTT0=
EXTT1=
EXTT2=
EXTT3=
EXTT4=
EXTT5=
PLAYORDER=
